<svg width="792" height="195" viewBox="0 0 792 195" fill="none" xmlns="http://www.w3.org/2000/svg">
<path d="M11.4526 170.564L0.123425 176.562C-0.219761 178.543 0.0418733 179.792 2.34484 182.56C5.29078 185.804 6.3892 187.697 10.5641 190.779L21.6711 195C27.384 194.84 30.5377 194.511 36.1103 193.667C39.6198 192.253 41.5564 191.381 44.7738 189.224C47.1199 187.574 48.3549 186.57 50.3273 184.559C52.7378 181.611 53.8484 179.896 55.6587 176.784L62.1008 166.121C66.9149 155.111 68.7576 148.829 72.5414 137.687L80.3164 109.475L87.2027 79.4862L92.5341 55.7171C97.9394 40.9615 103.85 37.0736 116.747 33.7251H161.176L198.495 33.2808C199.415 33.3211 199.625 33.53 199.606 34.1694L183.612 92.5925L174.948 127.691L168.284 155.014L164.952 171.23L163.175 182.56C161.699 186.411 163.057 188.348 166.729 191.667H204.493C207.941 189.903 209.426 188.47 210.935 184.781L212.046 136.576L212.935 121.471L214.49 99.2567L216.489 82.1519L219.821 61.0485L222.709 45.9429L226.929 25.9502L227.596 22.3959L228.484 17.2867L229.373 15.0652L229.817 12.6217V10.8446L228.484 9.51172H138.295L111.86 9.956L102.753 11.0667L91.8677 13.2881L82.7599 16.3981L74.3185 19.9523L66.5436 24.3952L59.4351 29.5044L51.6602 35.9465L44.5517 44.1657L38.1096 54.3842L34.7774 61.4927L33.4446 67.0463L33.0003 71.0448L36.1103 71.4891L42.1081 67.0463L46.1066 64.8248L52.1044 63.9363C56.8971 63.9316 58.9629 65.7626 61.2122 73.2662L60.5458 81.0411L59.213 89.4825L56.3251 100.59L52.5487 111.919L48.328 120.804L42.9967 132.356L37.4431 142.13L32.1117 150.127L27.0025 156.347L22.3375 161.456L17.8947 165.677L11.4526 170.564Z" fill="url(#paint0_linear_428_406)"/>
<path d="M279.333 112V27.6302H312.619C319.019 27.6302 324.47 28.8524 328.974 31.2967C333.478 33.7135 336.911 37.0779 339.273 41.3897C341.663 45.6741 342.857 50.6177 342.857 56.2204C342.857 61.823 341.649 66.7666 339.232 71.051C336.815 75.3354 333.314 78.6723 328.727 81.0617C324.168 83.451 318.648 84.6457 312.166 84.6457H290.95V70.3507H309.283C312.716 70.3507 315.544 69.7602 317.769 68.5792C320.021 67.3708 321.696 65.7092 322.795 63.5945C323.921 61.4523 324.484 58.9942 324.484 56.2204C324.484 53.419 323.921 50.9747 322.795 48.8874C321.696 46.7727 320.021 45.1386 317.769 43.9851C315.517 42.8041 312.661 42.2137 309.2 42.2137H297.171V112H279.333ZM370.459 113.195C366.422 113.195 362.824 112.494 359.665 111.094C356.507 109.666 354.008 107.565 352.168 104.791C350.355 101.989 349.449 98.5014 349.449 94.3268C349.449 90.8114 350.094 87.859 351.385 85.4697C352.676 83.0803 354.434 81.1578 356.658 79.7022C358.883 78.2466 361.409 77.148 364.238 76.4065C367.095 75.665 370.088 75.1431 373.219 74.841C376.899 74.4565 379.865 74.0995 382.117 73.7699C384.369 73.4129 386.004 72.8911 387.02 72.2045C388.036 71.5179 388.544 70.5017 388.544 69.156V68.9088C388.544 66.2997 387.72 64.2811 386.072 62.8529C384.452 61.4248 382.145 60.7107 379.151 60.7107C375.993 60.7107 373.48 61.4111 371.612 62.8117C369.745 64.185 368.509 65.9152 367.905 68.0025L351.673 66.6842C352.497 62.8392 354.118 59.5161 356.535 56.7147C358.951 53.8859 362.069 51.7162 365.886 50.2057C369.731 48.6677 374.18 47.8987 379.234 47.8987C382.749 47.8987 386.113 48.3107 389.327 49.1346C392.568 49.9585 395.438 51.2356 397.937 52.9659C400.463 54.6961 402.455 56.9207 403.91 59.6396C405.366 62.3311 406.094 65.5582 406.094 69.3207V112H389.45V103.225H388.956C387.94 105.203 386.58 106.947 384.878 108.457C383.175 109.94 381.129 111.107 378.739 111.959C376.35 112.783 373.59 113.195 370.459 113.195ZM375.485 101.083C378.066 101.083 380.346 100.575 382.323 99.5588C384.301 98.5151 385.853 97.1144 386.979 95.3567C388.105 93.599 388.668 91.6079 388.668 89.3833V82.6683C388.118 83.0253 387.363 83.3549 386.402 83.657C385.468 83.9317 384.411 84.1926 383.23 84.4397C382.049 84.6595 380.868 84.8654 379.687 85.0577C378.506 85.2225 377.435 85.3735 376.474 85.5108C374.414 85.813 372.615 86.2936 371.077 86.9527C369.539 87.6119 368.344 88.5044 367.493 89.6305C366.641 90.729 366.216 92.1022 366.216 93.7501C366.216 96.1395 367.081 97.9658 368.811 99.2292C370.569 100.465 372.793 101.083 375.485 101.083ZM428.278 135.729C426.053 135.729 423.966 135.55 422.016 135.193C420.093 134.864 418.501 134.438 417.237 133.916L421.192 120.816C423.252 121.448 425.106 121.791 426.753 121.846C428.429 121.901 429.871 121.516 431.079 120.692C432.315 119.868 433.317 118.468 434.086 116.49L435.116 113.813L412.417 48.7227H430.873L443.973 95.192H444.633L457.857 48.7227H476.436L451.842 118.839C450.661 122.244 449.054 125.21 447.022 127.737C445.017 130.291 442.477 132.255 439.401 133.628C436.325 135.029 432.617 135.729 428.278 135.729ZM503.584 27.6302V112H485.746V27.6302H503.584ZM535.481 75.4178V112H517.931V48.7227H534.657V59.8868H535.398C536.799 56.2066 539.147 53.2954 542.443 51.1532C545.738 48.9836 549.734 47.8987 554.431 47.8987C558.825 47.8987 562.656 48.86 565.924 50.7825C569.193 52.7049 571.733 55.4514 573.546 59.0217C575.358 62.5646 576.265 66.794 576.265 71.7101V112H558.715V74.841C558.743 70.9686 557.754 67.9475 555.749 65.7779C553.744 63.5807 550.984 62.4822 547.469 62.4822C545.107 62.4822 543.019 62.9903 541.207 64.0064C539.422 65.0226 538.021 66.5057 537.005 68.4556C536.016 70.3781 535.508 72.6988 535.481 75.4178ZM623.754 48.7227V61.9054H585.647V48.7227H623.754ZM594.298 33.5625H611.848V92.5554C611.848 94.1758 612.095 95.4391 612.589 96.3454C613.084 97.2243 613.77 97.8422 614.649 98.1993C615.556 98.5563 616.599 98.7348 617.78 98.7348C618.604 98.7348 619.428 98.6662 620.252 98.5288C621.076 98.3641 621.708 98.2405 622.147 98.1581L624.907 111.217C624.028 111.492 622.792 111.808 621.199 112.165C619.607 112.549 617.67 112.783 615.391 112.865C611.161 113.03 607.454 112.467 604.268 111.176C601.109 109.885 598.651 107.88 596.894 105.161C595.136 102.442 594.271 99.0095 594.298 94.8624V33.5625ZM663.343 113.236C656.834 113.236 651.232 111.918 646.535 109.281C641.866 106.617 638.268 102.854 635.742 97.9933C633.215 93.1047 631.952 87.3235 631.952 80.6497C631.952 74.1407 633.215 68.4282 635.742 63.5121C638.268 58.596 641.825 54.7648 646.412 52.0183C651.026 49.2719 656.436 47.8987 662.643 47.8987C666.817 47.8987 670.704 48.5716 674.301 49.9173C677.927 51.2356 681.085 53.2268 683.776 55.8908C686.495 58.5548 688.61 61.9054 690.121 65.9427C691.631 69.9524 692.387 74.6488 692.387 80.0318V84.8517H638.955V73.9759H675.867C675.867 71.4492 675.318 69.2109 674.219 67.2609C673.12 65.311 671.596 63.7867 669.646 62.6882C667.724 61.5621 665.485 60.9991 662.931 60.9991C660.267 60.9991 657.905 61.6171 655.845 62.8529C653.813 64.0614 652.22 65.6955 651.067 67.7553C649.913 69.7876 649.323 72.0534 649.295 74.5527V84.8929C649.295 88.0238 649.872 90.729 651.026 93.0086C652.206 95.2881 653.868 97.0458 656.01 98.2817C658.152 99.5176 660.693 100.135 663.632 100.135C665.582 100.135 667.367 99.8609 668.987 99.3116C670.607 98.7623 671.994 97.9384 673.148 96.8398C674.301 95.7412 675.18 94.3955 675.784 92.8026L692.016 93.8737C691.192 97.7736 689.503 101.179 686.949 104.09C684.422 106.974 681.154 109.226 677.144 110.847C673.162 112.439 668.561 113.236 663.343 113.236ZM721.389 27.6302V112H703.839V27.6302H721.389ZM752.996 27.6302V112H735.447V27.6302H752.996ZM767.055 112V48.7227H784.604V112H767.055ZM775.871 40.5658C773.261 40.5658 771.023 39.7007 769.156 37.9704C767.316 36.2127 766.395 34.1117 766.395 31.6674C766.395 29.2506 767.316 27.177 769.156 25.4468C771.023 23.6891 773.261 22.8102 775.871 22.8102C778.48 22.8102 780.704 23.6891 782.544 25.4468C784.412 27.177 785.346 29.2506 785.346 31.6674C785.346 34.1117 784.412 36.2127 782.544 37.9704C780.704 39.7007 778.48 40.5658 775.871 40.5658Z" fill="#082832"/>
<path d="M281.544 178.353V149.088H291.432C293.728 149.088 295.604 149.502 297.062 150.331C298.529 151.151 299.615 152.26 300.32 153.661C301.025 155.061 301.377 156.623 301.377 158.348C301.377 160.072 301.025 161.639 300.32 163.049C299.624 164.459 298.548 165.583 297.09 166.421C295.633 167.25 293.766 167.664 291.489 167.664H284.402V164.521H291.375C292.947 164.521 294.209 164.249 295.161 163.706C296.114 163.163 296.805 162.43 297.233 161.505C297.672 160.572 297.891 159.519 297.891 158.348C297.891 157.176 297.672 156.128 297.233 155.204C296.805 154.28 296.109 153.556 295.147 153.032C294.185 152.498 292.908 152.232 291.318 152.232H285.087V178.353H281.544ZM313.087 178.867C311.697 178.867 310.434 178.605 309.301 178.081C308.167 177.548 307.267 176.781 306.6 175.78C305.933 174.771 305.6 173.551 305.6 172.122C305.6 170.865 305.847 169.846 306.343 169.065C306.838 168.274 307.5 167.655 308.329 167.207C309.158 166.759 310.072 166.426 311.073 166.207C312.082 165.978 313.097 165.797 314.116 165.664C315.45 165.492 316.531 165.364 317.36 165.278C318.198 165.183 318.808 165.025 319.189 164.806C319.579 164.587 319.775 164.206 319.775 163.663V163.549C319.775 162.139 319.389 161.043 318.617 160.262C317.855 159.481 316.698 159.091 315.145 159.091C313.535 159.091 312.273 159.443 311.358 160.148C310.444 160.853 309.801 161.605 309.429 162.406L306.228 161.263C306.8 159.929 307.562 158.891 308.515 158.147C309.477 157.395 310.525 156.871 311.658 156.576C312.802 156.271 313.926 156.118 315.031 156.118C315.736 156.118 316.545 156.204 317.46 156.376C318.384 156.538 319.275 156.876 320.132 157.39C320.999 157.905 321.718 158.681 322.29 159.719C322.861 160.758 323.147 162.148 323.147 163.892V178.353H319.775V175.38H319.603C319.375 175.857 318.994 176.366 318.46 176.909C317.927 177.452 317.217 177.914 316.331 178.295C315.445 178.676 314.364 178.867 313.087 178.867ZM313.602 175.838C314.935 175.838 316.06 175.576 316.974 175.052C317.898 174.528 318.593 173.851 319.06 173.023C319.537 172.194 319.775 171.322 319.775 170.408V167.321C319.632 167.493 319.317 167.65 318.832 167.793C318.355 167.926 317.803 168.045 317.174 168.15C316.555 168.245 315.95 168.331 315.359 168.407C314.778 168.474 314.307 168.531 313.945 168.579C313.068 168.693 312.249 168.879 311.487 169.136C310.734 169.384 310.125 169.76 309.658 170.265C309.201 170.76 308.972 171.437 308.972 172.294C308.972 173.466 309.405 174.352 310.272 174.952C311.149 175.542 312.259 175.838 313.602 175.838ZM330.688 186.583C330.117 186.583 329.607 186.536 329.159 186.44C328.711 186.355 328.402 186.269 328.23 186.183L329.088 183.211C329.907 183.42 330.631 183.497 331.26 183.44C331.888 183.382 332.446 183.101 332.932 182.596C333.427 182.101 333.879 181.296 334.289 180.182L334.918 178.467L326.801 156.404H330.46L336.518 173.894H336.747L342.805 156.404H346.464L337.147 181.553C336.728 182.687 336.209 183.625 335.589 184.368C334.97 185.121 334.251 185.678 333.432 186.04C332.622 186.402 331.707 186.583 330.688 186.583ZM350.915 178.353V156.404H354.173V159.834H354.458C354.916 158.662 355.654 157.752 356.673 157.104C357.693 156.447 358.917 156.118 360.346 156.118C361.794 156.118 362.999 156.447 363.961 157.104C364.932 157.752 365.69 158.662 366.233 159.834H366.461C367.023 158.7 367.867 157.8 368.991 157.133C370.115 156.457 371.463 156.118 373.034 156.118C374.997 156.118 376.602 156.733 377.85 157.962C379.098 159.181 379.722 161.082 379.722 163.663V178.353H376.35V163.663C376.35 162.044 375.907 160.886 375.021 160.191C374.135 159.495 373.092 159.148 371.891 159.148C370.348 159.148 369.153 159.615 368.305 160.548C367.457 161.472 367.033 162.644 367.033 164.063V178.353H363.604V163.32C363.604 162.072 363.199 161.067 362.389 160.305C361.579 159.534 360.536 159.148 359.26 159.148C358.383 159.148 357.564 159.381 356.802 159.848C356.049 160.315 355.44 160.962 354.973 161.791C354.516 162.611 354.287 163.558 354.287 164.635V178.353H350.915ZM395.09 178.81C392.975 178.81 391.151 178.343 389.617 177.409C388.093 176.466 386.917 175.152 386.088 173.466C385.268 171.77 384.859 169.798 384.859 167.55C384.859 165.302 385.268 163.32 386.088 161.605C386.917 159.881 388.069 158.538 389.546 157.576C391.032 156.604 392.766 156.118 394.747 156.118C395.89 156.118 397.019 156.309 398.134 156.69C399.248 157.071 400.263 157.69 401.177 158.548C402.092 159.395 402.82 160.52 403.363 161.92C403.906 163.32 404.178 165.044 404.178 167.093V168.522H387.259V165.606H400.749C400.749 164.368 400.501 163.263 400.005 162.291C399.52 161.32 398.824 160.553 397.919 159.991C397.024 159.429 395.966 159.148 394.747 159.148C393.404 159.148 392.242 159.481 391.26 160.148C390.289 160.805 389.541 161.663 389.017 162.72C388.493 163.777 388.231 164.911 388.231 166.121V168.064C388.231 169.722 388.517 171.127 389.088 172.28C389.67 173.423 390.475 174.294 391.503 174.895C392.532 175.485 393.728 175.78 395.09 175.78C395.976 175.78 396.776 175.657 397.491 175.409C398.215 175.152 398.839 174.771 399.362 174.266C399.886 173.751 400.291 173.113 400.577 172.351L403.835 173.266C403.492 174.371 402.916 175.342 402.106 176.181C401.296 177.009 400.296 177.657 399.105 178.124C397.914 178.581 396.576 178.81 395.09 178.81ZM412.68 165.149V178.353H409.308V156.404H412.566V159.834H412.852C413.366 158.719 414.147 157.824 415.195 157.147C416.243 156.461 417.596 156.118 419.253 156.118C420.739 156.118 422.04 156.423 423.154 157.033C424.269 157.633 425.136 158.548 425.755 159.776C426.374 160.996 426.684 162.539 426.684 164.406V178.353H423.311V164.635C423.311 162.911 422.864 161.567 421.968 160.605C421.073 159.634 419.844 159.148 418.281 159.148C417.205 159.148 416.243 159.381 415.395 159.848C414.557 160.315 413.895 160.996 413.409 161.891C412.923 162.787 412.68 163.873 412.68 165.149ZM442.391 156.404V159.262H431.017V156.404H442.391ZM434.332 151.146H437.704V172.065C437.704 173.018 437.842 173.732 438.119 174.209C438.404 174.675 438.766 174.99 439.205 175.152C439.652 175.304 440.124 175.38 440.619 175.38C440.991 175.38 441.296 175.361 441.534 175.323C441.772 175.276 441.962 175.237 442.105 175.209L442.791 178.238C442.563 178.324 442.243 178.41 441.834 178.495C441.424 178.591 440.905 178.638 440.276 178.638C439.324 178.638 438.39 178.434 437.476 178.024C436.571 177.614 435.818 176.99 435.218 176.152C434.627 175.314 434.332 174.256 434.332 172.98V151.146ZM462.618 161.32L459.588 162.177C459.398 161.672 459.117 161.182 458.745 160.705C458.383 160.219 457.888 159.819 457.259 159.505C456.63 159.191 455.825 159.033 454.844 159.033C453.501 159.033 452.382 159.343 451.486 159.962C450.6 160.572 450.157 161.348 450.157 162.291C450.157 163.13 450.462 163.792 451.072 164.278C451.682 164.763 452.634 165.168 453.93 165.492L457.188 166.292C459.15 166.769 460.612 167.497 461.574 168.479C462.537 169.45 463.018 170.703 463.018 172.237C463.018 173.494 462.656 174.618 461.932 175.609C461.217 176.6 460.217 177.381 458.931 177.952C457.645 178.524 456.149 178.81 454.444 178.81C452.205 178.81 450.353 178.324 448.886 177.352C447.419 176.381 446.49 174.961 446.099 173.094L449.3 172.294C449.605 173.475 450.181 174.361 451.029 174.952C451.886 175.542 453.006 175.838 454.387 175.838C455.959 175.838 457.207 175.504 458.131 174.837C459.064 174.161 459.531 173.351 459.531 172.408C459.531 171.646 459.264 171.008 458.731 170.493C458.197 169.969 457.378 169.579 456.273 169.322L452.615 168.464C450.605 167.988 449.128 167.25 448.185 166.25C447.252 165.24 446.785 163.978 446.785 162.463C446.785 161.224 447.133 160.129 447.828 159.176C448.533 158.224 449.49 157.476 450.7 156.933C451.92 156.39 453.301 156.118 454.844 156.118C457.016 156.118 458.721 156.595 459.96 157.547C461.208 158.5 462.094 159.757 462.618 161.32ZM484.384 178.353L477.696 156.404H481.24L485.984 173.208H486.213L490.9 156.404H494.501L499.13 173.151H499.359L504.103 156.404H507.647L500.959 178.353H497.644L492.843 161.491H492.5L487.699 178.353H484.384ZM512.105 178.353V156.404H515.477V178.353H512.105ZM513.82 152.746C513.162 152.746 512.596 152.522 512.119 152.075C511.652 151.627 511.419 151.089 511.419 150.46C511.419 149.831 511.652 149.293 512.119 148.845C512.596 148.397 513.162 148.174 513.82 148.174C514.477 148.174 515.039 148.397 515.506 148.845C515.982 149.293 516.22 149.831 516.22 150.46C516.22 151.089 515.982 151.627 515.506 152.075C515.039 152.522 514.477 152.746 513.82 152.746ZM531.199 156.404V159.262H519.825V156.404H531.199ZM523.14 151.146H526.512V172.065C526.512 173.018 526.65 173.732 526.926 174.209C527.212 174.675 527.574 174.99 528.012 175.152C528.46 175.304 528.932 175.38 529.427 175.38C529.799 175.38 530.103 175.361 530.342 175.323C530.58 175.276 530.77 175.237 530.913 175.209L531.599 178.238C531.37 178.324 531.051 178.41 530.642 178.495C530.232 178.591 529.713 178.638 529.084 178.638C528.132 178.638 527.198 178.434 526.283 178.024C525.378 177.614 524.626 176.99 524.026 176.152C523.435 175.314 523.14 174.256 523.14 172.98V151.146ZM540.116 165.149V178.353H536.743V149.088H540.116V159.834H540.401C540.916 158.7 541.687 157.8 542.716 157.133C543.755 156.457 545.136 156.118 546.86 156.118C548.356 156.118 549.666 156.418 550.79 157.019C551.914 157.609 552.785 158.519 553.405 159.748C554.033 160.967 554.348 162.52 554.348 164.406V178.353H550.975V164.635C550.975 162.892 550.523 161.544 549.618 160.591C548.722 159.629 547.479 159.148 545.888 159.148C544.783 159.148 543.793 159.381 542.916 159.848C542.049 160.315 541.363 160.996 540.859 161.891C540.363 162.787 540.116 163.873 540.116 165.149ZM575.835 149.088V178.353H572.291V149.088H575.835ZM585.856 165.149V178.353H582.483V156.404H585.741V159.834H586.027C586.541 158.719 587.323 157.824 588.37 157.147C589.418 156.461 590.771 156.118 592.429 156.118C593.915 156.118 595.215 156.423 596.33 157.033C597.444 157.633 598.311 158.548 598.93 159.776C599.549 160.996 599.859 162.539 599.859 164.406V178.353H596.487V164.635C596.487 162.911 596.039 161.567 595.144 160.605C594.248 159.634 593.019 159.148 591.457 159.148C590.38 159.148 589.418 159.381 588.57 159.848C587.732 160.315 587.07 160.996 586.584 161.891C586.098 162.787 585.856 163.873 585.856 165.149ZM615.567 156.404V159.262H604.192V156.404H615.567ZM607.507 151.146H610.88V172.065C610.88 173.018 611.018 173.732 611.294 174.209C611.58 174.675 611.942 174.99 612.38 175.152C612.828 175.304 613.299 175.38 613.795 175.38C614.166 175.38 614.471 175.361 614.709 175.323C614.947 175.276 615.138 175.237 615.281 175.209L615.967 178.238C615.738 178.324 615.419 178.41 615.009 178.495C614.6 178.591 614.08 178.638 613.452 178.638C612.499 178.638 611.566 178.434 610.651 178.024C609.746 177.614 608.993 176.99 608.393 176.152C607.803 175.314 607.507 174.256 607.507 172.98V151.146ZM629.606 178.81C627.491 178.81 625.667 178.343 624.133 177.409C622.609 176.466 621.432 175.152 620.603 173.466C619.784 171.77 619.375 169.798 619.375 167.55C619.375 165.302 619.784 163.32 620.603 161.605C621.432 159.881 622.585 158.538 624.061 157.576C625.548 156.604 627.281 156.118 629.263 156.118C630.406 156.118 631.535 156.309 632.649 156.69C633.764 157.071 634.778 157.69 635.693 158.548C636.607 159.395 637.336 160.52 637.879 161.92C638.422 163.32 638.694 165.044 638.694 167.093V168.522H621.775V165.606H635.264C635.264 164.368 635.017 163.263 634.521 162.291C634.035 161.32 633.34 160.553 632.435 159.991C631.54 159.429 630.482 159.148 629.263 159.148C627.92 159.148 626.757 159.481 625.776 160.148C624.805 160.805 624.057 161.663 623.533 162.72C623.009 163.777 622.747 164.911 622.747 166.121V168.064C622.747 169.722 623.033 171.127 623.604 172.28C624.185 173.423 624.99 174.294 626.019 174.895C627.048 175.485 628.243 175.78 629.606 175.78C630.492 175.78 631.292 175.657 632.006 175.409C632.73 175.152 633.354 174.771 633.878 174.266C634.402 173.751 634.807 173.113 635.093 172.351L638.351 173.266C638.008 174.371 637.432 175.342 636.622 176.181C635.812 177.009 634.812 177.657 633.621 178.124C632.43 178.581 631.092 178.81 629.606 178.81ZM647.196 149.088V178.353H643.824V149.088H647.196ZM656.745 149.088V178.353H653.372V149.088H656.745ZM662.921 178.353V156.404H666.293V178.353H662.921ZM664.636 152.746C663.979 152.746 663.412 152.522 662.935 152.075C662.469 151.627 662.235 151.089 662.235 150.46C662.235 149.831 662.469 149.293 662.935 148.845C663.412 148.397 663.979 148.174 664.636 148.174C665.293 148.174 665.855 148.397 666.322 148.845C666.798 149.293 667.037 149.831 667.037 150.46C667.037 151.089 666.798 151.627 666.322 152.075C665.855 152.522 665.293 152.746 664.636 152.746ZM681.329 187.04C679.7 187.04 678.3 186.831 677.128 186.412C675.957 186.002 674.98 185.459 674.199 184.783C673.427 184.116 672.813 183.401 672.356 182.639L675.042 180.753C675.347 181.153 675.733 181.61 676.2 182.125C676.666 182.649 677.305 183.101 678.114 183.482C678.934 183.873 680.005 184.068 681.329 184.068C683.101 184.068 684.564 183.64 685.716 182.782C686.869 181.925 687.445 180.582 687.445 178.753V174.294H687.159C686.912 174.694 686.559 175.19 686.102 175.78C685.654 176.362 685.006 176.881 684.159 177.338C683.32 177.786 682.187 178.01 680.758 178.01C678.986 178.01 677.395 177.59 675.985 176.752C674.585 175.914 673.475 174.694 672.656 173.094C671.846 171.494 671.441 169.55 671.441 167.264C671.441 165.016 671.837 163.058 672.627 161.391C673.418 159.715 674.518 158.419 675.928 157.504C677.338 156.58 678.967 156.118 680.815 156.118C682.244 156.118 683.378 156.357 684.216 156.833C685.064 157.3 685.711 157.833 686.159 158.433C686.616 159.024 686.969 159.51 687.217 159.891H687.56V156.404H690.817V178.981C690.817 180.867 690.389 182.401 689.531 183.582C688.684 184.773 687.54 185.645 686.102 186.197C684.673 186.759 683.082 187.04 681.329 187.04ZM681.215 174.98C682.568 174.98 683.711 174.671 684.645 174.051C685.578 173.432 686.288 172.542 686.774 171.379C687.259 170.217 687.502 168.826 687.502 167.207C687.502 165.626 687.264 164.23 686.788 163.02C686.312 161.81 685.607 160.862 684.673 160.177C683.74 159.491 682.587 159.148 681.215 159.148C679.786 159.148 678.595 159.51 677.643 160.234C676.7 160.958 675.99 161.929 675.514 163.149C675.047 164.368 674.813 165.721 674.813 167.207C674.813 168.731 675.052 170.079 675.528 171.251C676.014 172.413 676.728 173.327 677.671 173.994C678.624 174.652 679.805 174.98 681.215 174.98ZM706.193 178.81C704.078 178.81 702.254 178.343 700.72 177.409C699.196 176.466 698.019 175.152 697.19 173.466C696.371 171.77 695.962 169.798 695.962 167.55C695.962 165.302 696.371 163.32 697.19 161.605C698.019 159.881 699.172 158.538 700.648 157.576C702.135 156.604 703.868 156.118 705.85 156.118C706.993 156.118 708.122 156.309 709.236 156.69C710.351 157.071 711.365 157.69 712.28 158.548C713.194 159.395 713.923 160.52 714.466 161.92C715.009 163.32 715.281 165.044 715.281 167.093V168.522H698.362V165.606H711.851C711.851 164.368 711.604 163.263 711.108 162.291C710.622 161.32 709.927 160.553 709.022 159.991C708.127 159.429 707.069 159.148 705.85 159.148C704.507 159.148 703.344 159.481 702.363 160.148C701.392 160.805 700.644 161.663 700.12 162.72C699.596 163.777 699.334 164.911 699.334 166.121V168.064C699.334 169.722 699.62 171.127 700.191 172.28C700.772 173.423 701.577 174.294 702.606 174.895C703.635 175.485 704.83 175.78 706.193 175.78C707.079 175.78 707.879 175.657 708.593 175.409C709.317 175.152 709.941 174.771 710.465 174.266C710.989 173.751 711.394 173.113 711.68 172.351L714.938 173.266C714.595 174.371 714.018 175.342 713.209 176.181C712.399 177.009 711.399 177.657 710.208 178.124C709.017 178.581 707.679 178.81 706.193 178.81ZM723.783 165.149V178.353H720.411V156.404H723.669V159.834H723.954C724.469 158.719 725.25 157.824 726.298 157.147C727.346 156.461 728.698 156.118 730.356 156.118C731.842 156.118 733.142 156.423 734.257 157.033C735.371 157.633 736.238 158.548 736.858 159.776C737.477 160.996 737.786 162.539 737.786 164.406V178.353H734.414V164.635C734.414 162.911 733.966 161.567 733.071 160.605C732.175 159.634 730.947 159.148 729.384 159.148C728.308 159.148 727.346 159.381 726.498 159.848C725.66 160.315 724.997 160.996 724.512 161.891C724.026 162.787 723.783 163.873 723.783 165.149ZM752.865 178.81C750.807 178.81 749.036 178.324 747.55 177.352C746.063 176.381 744.92 175.042 744.12 173.337C743.32 171.632 742.92 169.684 742.92 167.493C742.92 165.264 743.329 163.296 744.149 161.591C744.977 159.876 746.13 158.538 747.607 157.576C749.093 156.604 750.827 156.118 752.808 156.118C754.351 156.118 755.742 156.404 756.98 156.976C758.219 157.547 759.233 158.348 760.024 159.376C760.815 160.405 761.305 161.605 761.496 162.977H758.124C757.866 161.977 757.295 161.091 756.409 160.319C755.532 159.538 754.351 159.148 752.865 159.148C751.551 159.148 750.398 159.491 749.407 160.177C748.426 160.853 747.659 161.81 747.107 163.049C746.564 164.278 746.292 165.721 746.292 167.378C746.292 169.074 746.559 170.551 747.092 171.808C747.635 173.066 748.397 174.042 749.379 174.737C750.369 175.433 751.531 175.78 752.865 175.78C753.742 175.78 754.537 175.628 755.251 175.323C755.966 175.018 756.571 174.58 757.066 174.009C757.562 173.437 757.914 172.751 758.124 171.951H761.496C761.305 173.247 760.834 174.413 760.081 175.452C759.338 176.481 758.352 177.3 757.123 177.91C755.904 178.51 754.485 178.81 752.865 178.81ZM775.628 178.81C773.513 178.81 771.689 178.343 770.155 177.409C768.631 176.466 767.454 175.152 766.626 173.466C765.806 171.77 765.397 169.798 765.397 167.55C765.397 165.302 765.806 163.32 766.626 161.605C767.454 159.881 768.607 158.538 770.084 157.576C771.57 156.604 773.304 156.118 775.285 156.118C776.428 156.118 777.557 156.309 778.672 156.69C779.786 157.071 780.801 157.69 781.715 158.548C782.63 159.395 783.358 160.52 783.901 161.92C784.444 163.32 784.716 165.044 784.716 167.093V168.522H767.797V165.606H781.286C781.286 164.368 781.039 163.263 780.543 162.291C780.058 161.32 779.362 160.553 778.457 159.991C777.562 159.429 776.504 159.148 775.285 159.148C773.942 159.148 772.78 159.481 771.798 160.148C770.827 160.805 770.079 161.663 769.555 162.72C769.031 163.777 768.769 164.911 768.769 166.121V168.064C768.769 169.722 769.055 171.127 769.626 172.28C770.208 173.423 771.012 174.294 772.041 174.895C773.07 175.485 774.266 175.78 775.628 175.78C776.514 175.78 777.314 175.657 778.029 175.409C778.753 175.152 779.376 174.771 779.9 174.266C780.424 173.751 780.829 173.113 781.115 172.351L784.373 173.266C784.03 174.371 783.454 175.342 782.644 176.181C781.834 177.009 780.834 177.657 779.643 178.124C778.452 178.581 777.114 178.81 775.628 178.81Z" fill="#166F8A"/>
<defs>
<linearGradient id="paint0_linear_428_406" x1="230" y1="10" x2="-8.17289e-06" y2="223" gradientUnits="userSpaceOnUse">
<stop stop-color="#082832"/>
<stop offset="1" stop-color="#187A98"/>
</linearGradient>
</defs>
</svg>
